<?xml version="1.0" encoding="utf-8"?>
<!-- Generator: Adobe Illustrator 24.3.0, SVG Export Plug-In . SVG Version: 6.00 Build 0)  -->
<svg version="1.1" id="Layer_1" xmlns="http://www.w3.org/2000/svg" xmlns:xlink="http://www.w3.org/1999/xlink" x="0px" y="0px"
	 viewBox="0 0 200 100" style="enable-background:new 0 0 200 100;" xml:space="preserve">
<style type="text/css">
	.st0{fill:#FFFFFF;}
	.st1{fill:#ED3C40;}
</style>
<g>
	<g>
		<g>
			<path class="st0" d="M9.11,40.3h12.97v3.43h-8.17v2.68h7.63v3.44h-7.63v5.32h-4.8V40.3z"/>
			<path class="st0" d="M28.37,52.41l-0.94,2.77h-4.85l5.62-14.88h6.3l6,14.88h-5.19l-1.01-2.77H28.37z M33.17,48.96
				c-0.97-2.68-1.53-4.37-1.91-5.61H31.2c-0.32,1.23-0.98,3.34-1.77,5.61H33.17z"/>
			<path class="st0" d="M57.49,50.13c-0.68,3.13-3.19,5.39-7.97,5.39c-5.51,0-8.28-3.52-8.28-7.79c0-4.07,2.72-7.77,8.48-7.77
				c5.04,0,7.42,2.63,7.81,5.33h-4.88c-0.21-0.82-0.83-2.04-2.95-2.04c-2.26,0-3.37,1.77-3.37,4.38c0,2.37,0.88,4.56,3.38,4.56
				c1.8,0,2.54-0.79,2.97-2.06H57.49z"/>
			<path class="st0" d="M63.36,43.73h-4.91V40.3h14.62v3.43h-4.88v11.45h-4.83V43.73z"/>
			<path class="st0" d="M83.95,50.7c0.31,0.98,1.08,1.72,3.02,1.72c1.72,0,2.25-0.52,2.25-1.26c0-0.79-0.48-1.25-3.27-1.74
				c-5.49-0.96-6.28-2.84-6.28-4.79c0-2.94,2.77-4.66,6.83-4.66c4.95,0,6.93,2.29,7.12,4.49h-4.7c-0.17-0.66-0.59-1.42-2.43-1.42
				c-1.31,0-1.93,0.43-1.93,1.12c0,0.69,0.62,1.01,2.93,1.43c5.62,1.01,6.71,2.77,6.71,5.01c0,2.84-2.39,4.9-7.44,4.9
				c-4.99,0-7.21-2.12-7.65-4.8H83.95z"/>
			<path class="st0" d="M109.41,49.62c0,3.5-2.42,5.85-6.91,5.85c-4.66,0-6.65-2.93-6.65-5.83c0-3.12,2.21-5.85,6.79-5.85
				C107.32,43.79,109.41,46.86,109.41,49.62z M100.61,49.61c0,1.75,0.66,2.91,2.01,2.91c1.38,0,1.97-1.14,1.97-2.83
				c0-1.72-0.53-2.94-1.99-2.94C101.24,46.75,100.61,47.85,100.61,49.61z"/>
			<path class="st0" d="M111.46,55.18V39.55h4.7v15.62H111.46z"/>
			<path class="st0" d="M131.26,51.63c0,1.18-0.02,2.6,0.01,3.55h-4.61c-0.05-0.3-0.06-0.79-0.08-1.16
				c-0.63,0.8-1.46,1.46-3.71,1.46c-2.41,0-4.16-1.45-4.16-4.51v-6.87h4.71v6.26c0,1.24,0.41,1.97,1.46,1.97
				c1.23,0,1.68-0.77,1.68-2.71v-5.52h4.7V51.63z"/>
			<path class="st0" d="M132.9,44.09h1.84v-3.1h4.71v3.1h2.27v3.01h-2.27v3.99c0,0.78,0.19,1.16,1.15,1.16
				c0.23,0,0.5-0.01,0.75-0.06v2.85c-0.61,0.18-1.7,0.28-2.71,0.28c-3.19,0-3.91-1.4-3.91-3.56V47.1h-1.83V44.09z"/>
			<path class="st0" d="M143.68,39.55h4.7v3h-4.7V39.55z M143.68,44.09h4.7v11.09h-4.7V44.09z"/>
			<path class="st0" d="M163.98,49.62c0,3.5-2.42,5.85-6.91,5.85c-4.66,0-6.65-2.93-6.65-5.83c0-3.12,2.21-5.85,6.79-5.85
				C161.89,43.79,163.98,46.86,163.98,49.62z M155.18,49.61c0,1.75,0.66,2.91,2.01,2.91c1.38,0,1.97-1.14,1.97-2.83
				c0-1.72-0.53-2.94-1.99-2.94C155.81,46.75,155.18,47.85,155.18,49.61z"/>
			<path class="st0" d="M166.03,46.97c0-0.97,0-2.16-0.02-2.88h4.62c0.05,0.3,0.08,0.9,0.11,1.22c0.51-0.65,1.53-1.52,3.62-1.52
				c2.79,0,4.35,1.69,4.35,4.54v6.84h-4.74v-6.39c0-1-0.37-1.82-1.5-1.82c-1.15,0-1.72,0.73-1.72,2.42v5.79h-4.71V46.97z"/>
			<path class="st0" d="M184.98,51.77c0.22,0.62,0.8,0.99,1.85,0.99c1.05,0,1.38-0.31,1.38-0.7c0-0.49-0.46-0.69-2.22-0.94
				c-4.47-0.62-5.05-2.21-5.05-3.64c0-1.81,1.42-3.68,5.51-3.68c4.29,0,5.74,1.87,5.92,3.53h-4.22c-0.12-0.46-0.48-0.88-1.61-0.88
				c-0.98,0-1.17,0.34-1.17,0.66c0,0.36,0.4,0.55,2.08,0.8c4.53,0.68,5.28,2.17,5.28,3.77c0,1.98-1.41,3.8-5.97,3.8
				c-3.49,0-5.79-1.4-6.14-3.71H184.98z"/>
		</g>
	</g>
	<rect x="8.57" y="26.67" class="st1" width="39.77" height="3.96"/>
	<g>
		<g>
			<path class="st0" d="M10.31,64.19h5.17v0.91h-4.07v2.01h3.79v0.92h-3.79v2.82h-1.1V64.19z"/>
			<path class="st0" d="M16.58,63.8h1.05v1.11h-1.05V63.8z M16.58,66.07h1.05v4.78h-1.05V66.07z"/>
			<path class="st0" d="M19.09,67.28c0-0.4,0-0.85-0.01-1.21h1.02c0.02,0.16,0.03,0.53,0.04,0.82c0.21-0.43,0.69-0.95,1.7-0.95
				c1.14,0,1.86,0.7,1.86,1.99v2.92h-1.06v-2.74c0-0.73-0.28-1.32-1.12-1.32c-0.92,0-1.37,0.69-1.37,1.74v2.31h-1.05V67.28z"/>
			<path class="st0" d="M29.47,69.63c0,0.5,0.03,1.11,0.04,1.22h-0.99c-0.04-0.16-0.05-0.51-0.06-0.66
				c-0.25,0.48-0.8,0.79-1.78,0.79c-1.34,0-1.84-0.81-1.84-1.54c0-1.23,1.11-1.57,2.48-1.57c0.53,0,0.96,0,1.12,0v-0.23
				c0-0.49-0.21-0.94-1.15-0.94c-0.85,0-1.05,0.36-1.14,0.76h-1.05c0.05-0.62,0.48-1.53,2.18-1.53c1.82,0,2.18,0.88,2.18,1.67V69.63
				z M28.45,68.58c-0.14,0-0.46,0-1.1,0c-1.02,0-1.48,0.23-1.48,0.81c0,0.44,0.33,0.8,1.06,0.8c1.16,0,1.52-0.65,1.52-1.43V68.58z"
				/>
			<path class="st0" d="M30.94,67.28c0-0.4,0-0.85-0.01-1.21h1.02c0.02,0.16,0.03,0.53,0.04,0.82c0.21-0.43,0.69-0.95,1.7-0.95
				c1.14,0,1.86,0.7,1.86,1.99v2.92h-1.06v-2.74c0-0.73-0.28-1.32-1.12-1.32c-0.92,0-1.37,0.69-1.37,1.74v2.31h-1.05V67.28z"/>
			<path class="st0" d="M41.61,69.33c-0.22,0.87-0.98,1.66-2.39,1.66c-1.73,0-2.55-1.15-2.55-2.51c0-1.34,0.92-2.53,2.56-2.53
				c1.68,0,2.27,1.08,2.36,1.68h-1.05c-0.15-0.4-0.49-0.86-1.32-0.86c-0.95,0-1.48,0.71-1.48,1.69c0,0.94,0.51,1.7,1.48,1.7
				c0.72,0,1.11-0.32,1.34-0.83H41.61z"/>
			<path class="st0" d="M43.4,68.71c0.05,0.83,0.62,1.45,1.52,1.45c0.7,0,1.08-0.27,1.32-0.7h1.05c-0.26,0.74-0.95,1.52-2.41,1.52
				c-1.77,0-2.53-1.26-2.53-2.51c0-1.42,0.95-2.53,2.51-2.53c1.83,0,2.49,1.32,2.49,2.5c0,0.09,0,0.16,0,0.27H43.4z M46.28,68
				c-0.04-0.52-0.31-1.27-1.42-1.27c-0.93,0-1.37,0.57-1.44,1.27H46.28z"/>
			<path class="st0" d="M55.12,63.45v9.88h-0.97v-9.88H55.12z"/>
			<path class="st0" d="M60.82,68.95l-0.79,1.9h-1.14l2.82-6.66h1.36l2.94,6.66h-1.2l-0.83-1.9H60.82z M63.65,68.03
				c-0.77-1.77-1.13-2.61-1.29-3.08h-0.01c-0.14,0.45-0.57,1.56-1.2,3.08H63.65z"/>
			<path class="st0" d="M71.44,69.33c-0.22,0.87-0.98,1.66-2.39,1.66c-1.73,0-2.55-1.15-2.55-2.51c0-1.34,0.92-2.53,2.56-2.53
				c1.68,0,2.27,1.08,2.36,1.68h-1.05c-0.15-0.4-0.49-0.86-1.32-0.86c-0.95,0-1.48,0.71-1.48,1.69c0,0.94,0.51,1.7,1.48,1.7
				c0.72,0,1.11-0.32,1.34-0.83H71.44z"/>
			<path class="st0" d="M77.12,69.33c-0.22,0.87-0.98,1.66-2.39,1.66c-1.73,0-2.55-1.15-2.55-2.51c0-1.34,0.92-2.53,2.56-2.53
				c1.68,0,2.27,1.08,2.36,1.68h-1.05c-0.15-0.4-0.49-0.86-1.32-0.86c-0.95,0-1.48,0.71-1.48,1.69c0,0.94,0.51,1.7,1.48,1.7
				c0.72,0,1.11-0.32,1.34-0.83H77.12z"/>
			<path class="st0" d="M83.06,68.46c0,1.36-0.9,2.52-2.63,2.52c-1.66,0-2.56-1.2-2.56-2.52c0-1.36,0.95-2.52,2.61-2.52
				C82.18,65.94,83.06,67.21,83.06,68.46z M78.94,68.46c0,0.87,0.54,1.68,1.53,1.68c1.03,0,1.51-0.77,1.51-1.67s-0.52-1.7-1.53-1.7
				C79.42,66.77,78.94,67.56,78.94,68.46z"/>
			<path class="st0" d="M88.71,69.46c0,0.46,0,0.93,0,1.39H87.7c-0.02-0.13-0.03-0.44-0.03-0.75c-0.24,0.5-0.65,0.88-1.69,0.88
				c-1.01,0-1.79-0.56-1.79-1.96v-2.96h1.05v2.77c0,0.7,0.27,1.28,1.07,1.28c0.96,0,1.36-0.56,1.36-1.88v-2.17h1.05V69.46z"/>
			<path class="st0" d="M90.17,67.28c0-0.4,0-0.85-0.01-1.21h1.02c0.02,0.16,0.03,0.53,0.04,0.82c0.21-0.43,0.69-0.95,1.7-0.95
				c1.14,0,1.86,0.7,1.86,1.99v2.92h-1.06v-2.74c0-0.73-0.28-1.32-1.12-1.32c-0.92,0-1.37,0.69-1.37,1.74v2.31h-1.05V67.28z"/>
			<path class="st0" d="M95.65,66.07h0.93v-1.51h1.05v1.51h1.21v0.8h-1.21v2.47c0,0.51,0.13,0.74,0.63,0.74c0.14,0,0.32,0,0.46-0.04
				v0.75c-0.23,0.08-0.5,0.09-0.79,0.09c-1.04,0-1.35-0.46-1.35-1.4v-2.62h-0.93V66.07z"/>
			<path class="st0" d="M100.46,69.4c0.16,0.51,0.6,0.82,1.42,0.82c0.85,0,1.14-0.29,1.14-0.67c0-0.37-0.23-0.6-1.38-0.75
				c-1.71-0.22-2.02-0.83-2.02-1.42c0-0.64,0.51-1.44,2.07-1.44c1.66,0,2.16,0.84,2.21,1.44h-1.04c-0.07-0.27-0.26-0.69-1.22-0.69
				c-0.81,0-0.98,0.34-0.98,0.59c0,0.32,0.21,0.51,1.25,0.65c1.83,0.25,2.15,0.83,2.15,1.53c0,0.86-0.66,1.52-2.25,1.52
				c-1.37,0-2.24-0.58-2.4-1.58H100.46z"/>
			<path class="st0" d="M109.09,63.45v9.88h-0.97v-9.88H109.09z"/>
			<path class="st0" d="M119.89,68.86c-0.36,1.15-1.22,2.13-3.17,2.13c-2.25,0-3.44-1.57-3.44-3.46c0-1.89,1.32-3.49,3.5-3.49
				c1.95,0,2.88,1.06,3.13,2.16h-1.13c-0.25-0.62-0.75-1.26-2.02-1.26c-1.46,0-2.32,1.09-2.32,2.55c0,1.44,0.84,2.61,2.33,2.61
				c1.18,0,1.66-0.5,2-1.24H119.89z"/>
			<path class="st0" d="M125.92,68.46c0,1.36-0.9,2.52-2.63,2.52c-1.66,0-2.56-1.2-2.56-2.52c0-1.36,0.95-2.52,2.61-2.52
				C125.04,65.94,125.92,67.21,125.92,68.46z M121.8,68.46c0,0.87,0.54,1.68,1.53,1.68c1.03,0,1.51-0.77,1.51-1.67
				s-0.52-1.7-1.53-1.7C122.28,66.77,121.8,67.56,121.8,68.46z"/>
			<path class="st0" d="M127.05,67.37c0-0.43,0-0.87-0.01-1.3h1.02c0.02,0.15,0.04,0.66,0.04,1.05c0.3-0.71,0.96-1.19,1.91-1.17
				v0.99c-1.09-0.01-1.91,0.59-1.91,1.99v1.93h-1.05V67.37z"/>
			<path class="st0" d="M131.97,70.2v2.72h-1.05v-5.67c0-0.4,0-0.79-0.01-1.19h1.02c0.02,0.13,0.03,0.45,0.03,0.77
				c0.28-0.47,0.82-0.9,1.8-0.9c1.28,0,2.23,1.05,2.23,2.44c0,1.59-1.11,2.61-2.39,2.61C132.67,70.98,132.22,70.58,131.97,70.2z
				 M134.92,68.42c0-0.81-0.47-1.63-1.47-1.63c-1.06,0-1.5,0.73-1.5,1.68c0,0.96,0.5,1.64,1.49,1.64
				C134.42,70.12,134.92,69.34,134.92,68.42z"/>
			<path class="st0" d="M141.98,68.46c0,1.36-0.9,2.52-2.63,2.52c-1.66,0-2.56-1.2-2.56-2.52c0-1.36,0.95-2.52,2.61-2.52
				C141.11,65.94,141.98,67.21,141.98,68.46z M137.87,68.46c0,0.87,0.54,1.68,1.53,1.68c1.03,0,1.51-0.77,1.51-1.67
				s-0.52-1.7-1.53-1.7C138.35,66.77,137.87,67.56,137.87,68.46z"/>
			<path class="st0" d="M143.12,67.37c0-0.43,0-0.87-0.01-1.3h1.02c0.02,0.15,0.04,0.66,0.04,1.05c0.3-0.71,0.96-1.19,1.91-1.17
				v0.99c-1.09-0.01-1.91,0.59-1.91,1.99v1.93h-1.05V67.37z"/>
			<path class="st0" d="M151.31,69.63c0,0.5,0.03,1.11,0.04,1.22h-1c-0.04-0.16-0.05-0.51-0.06-0.66c-0.25,0.48-0.8,0.79-1.78,0.79
				c-1.34,0-1.84-0.81-1.84-1.54c0-1.23,1.11-1.57,2.48-1.57c0.53,0,0.96,0,1.12,0v-0.23c0-0.49-0.21-0.94-1.15-0.94
				c-0.85,0-1.05,0.36-1.14,0.76h-1.05c0.05-0.62,0.48-1.53,2.18-1.53c1.82,0,2.18,0.88,2.18,1.67V69.63z M150.28,68.58
				c-0.14,0-0.46,0-1.1,0c-1.02,0-1.48,0.23-1.48,0.81c0,0.44,0.33,0.8,1.06,0.8c1.16,0,1.52-0.65,1.52-1.43V68.58z"/>
			<path class="st0" d="M152.19,66.07h0.93v-1.51h1.05v1.51h1.21v0.8h-1.21v2.47c0,0.51,0.13,0.74,0.63,0.74
				c0.14,0,0.32,0,0.46-0.04v0.75c-0.23,0.08-0.5,0.09-0.79,0.09c-1.04,0-1.35-0.46-1.35-1.4v-2.62h-0.93V66.07z"/>
			<path class="st0" d="M157.09,68.71c0.05,0.83,0.62,1.45,1.53,1.45c0.7,0,1.08-0.27,1.32-0.7h1.05c-0.26,0.74-0.95,1.52-2.41,1.52
				c-1.77,0-2.53-1.26-2.53-2.51c0-1.42,0.95-2.53,2.51-2.53c1.83,0,2.49,1.32,2.49,2.5c0,0.09,0,0.16,0,0.27H157.09z M159.96,68
				c-0.04-0.52-0.31-1.27-1.42-1.27c-0.94,0-1.37,0.57-1.44,1.27H159.96z"/>
			<path class="st0" d="M166.06,63.45v9.88h-0.97v-9.88H166.06z"/>
			<path class="st0" d="M172.33,65.1h-2.5v-0.92h6.09v0.92h-2.49v5.75h-1.11V65.1z"/>
			<path class="st0" d="M181.06,69.63c0,0.5,0.03,1.11,0.04,1.22h-1c-0.04-0.16-0.05-0.51-0.06-0.66c-0.25,0.48-0.8,0.79-1.78,0.79
				c-1.34,0-1.84-0.81-1.84-1.54c0-1.23,1.11-1.57,2.48-1.57c0.53,0,0.96,0,1.12,0v-0.23c0-0.49-0.21-0.94-1.15-0.94
				c-0.85,0-1.05,0.36-1.14,0.76h-1.05c0.05-0.62,0.48-1.53,2.18-1.53c1.82,0,2.18,0.88,2.18,1.67V69.63z M180.03,68.58
				c-0.14,0-0.46,0-1.1,0c-1.02,0-1.48,0.23-1.48,0.81c0,0.44,0.33,0.8,1.06,0.8c1.16,0,1.52-0.65,1.52-1.43V68.58z"/>
			<path class="st0" d="M183.08,66.07c0.79,0.92,1.27,1.48,1.46,1.72h0.01c0.25-0.32,0.75-0.92,1.44-1.72h1.15l-2.01,2.31l2.1,2.47
				H186c-0.72-0.87-1.26-1.5-1.51-1.79h-0.02c-0.19,0.24-0.66,0.82-1.47,1.79h-1.17l2.04-2.42l-2.04-2.36H183.08z"/>
		</g>
	</g>
</g>
</svg>
